<?xml version="1.0" encoding="UTF-8"?><svg id="Calque_1" xmlns="http://www.w3.org/2000/svg" viewBox="0 0 1920 1089"><defs><style>.cls-1,.cls-2,.cls-3{fill:#8ec6dd;}.cls-2{opacity:.8;}.cls-3{opacity:.6;}</style></defs><path class="cls-1" d="M-103.09,1114.55c47.08-106.3,135.83-257.94,299.11-341.76,247.34-126.97,548.3-38.1,805.91,37.97,326.56,96.43,403.84,196.47,574.38,149.89,205.76-56.2,284.02-253.93,360.72-221.84,74.17,31.02,137,281.06,21.86,409.71-26.83,29.98-2028.2,34.98-2028.2,34.98l-33.79-68.95Z"/><path class="cls-2" d="M-117,1054.59c47.08-106.3,135.83-257.94,299.11-341.76,247.34-126.97,548.3-38.1,805.91,37.97,326.56,96.43,403.84,196.47,574.38,149.89,205.76-56.2,284.02-253.93,360.72-221.84,74.17,31.02,137,281.06,21.86,409.71-26.83,29.98-2028.2,34.98-2028.2,34.98l-33.79-68.95Z"/><path class="cls-3" d="M-117,975.65c47.08-106.3,135.83-257.94,299.11-341.76,247.34-126.97,548.3-38.1,805.91,37.97,326.56,96.43,403.84,196.47,574.38,149.89,205.76-56.2,284.02-253.93,360.72-221.84,74.17,31.02,137,281.06,21.86,409.71-26.83,29.98-2028.2,34.98-2028.2,34.98l-33.79-68.95Z"/></svg>