<?xml version="1.0" encoding="UTF-8"?><svg id="Calque_2" xmlns="http://www.w3.org/2000/svg" viewBox="0 0 175.5 132"><defs><style>.cls-1{fill:#fff;}.cls-1,.cls-2,.cls-3,.cls-4{opacity:.3;}.cls-2{fill:#878787;}.cls-3{fill:#7b6a58;}.cls-4{fill:#dadada;}</style></defs><g id="Calque_1-2"><path class="cls-3" d="M175.5,39.85c0,.18,0,.35-.01,.53-.44,50.69-39.56,91.62-87.74,91.62S.45,91.07,.01,40.38C0,40.2,0,40.03,0,39.85,.18,17.83,39.4,0,87.75,0s87.57,17.83,87.75,39.85Z"/><path class="cls-2" d="M175,40.49v.16c0,.13,0,.26-.01,.38-.06,3.02-.84,5.97-2.27,8.79-9,17.88-43.75,31.19-85.22,31.19S12.74,68.25,2.88,50.93C1.07,47.77,.08,44.44,.01,41.02c-.01-.12-.01-.24-.01-.38v-.16C.18,18.28,39.28,.29,87.5,.29s87.32,17.99,87.5,40.2Z"/><path class="cls-1" d="M160,40.3v.13c0,.11,0,.21-.01,.31-.05,2.48-.7,4.9-1.88,7.22-7.46,14.68-36.25,25.61-70.61,25.61S25.56,63.1,17.39,48.88c-1.5-2.6-2.32-5.33-2.38-8.14-.01-.1-.01-.2-.01-.31v-.13C15.15,22.06,47.55,7.29,87.5,7.29s72.35,14.77,72.5,33.01Z"/><path class="cls-4" d="M158.11,47.96c-7.46,14.68-36.25,25.61-70.61,25.61S25.56,63.1,17.39,48.88c7.47-14.66,36.25-25.59,70.61-25.59s61.92,10.47,70.11,24.67Z"/></g></svg>