<?xml version="1.0" encoding="UTF-8"?><svg id="Calque_2" xmlns="http://www.w3.org/2000/svg" viewBox="0 0 175 132"><defs><style>.cls-1{fill:#fff;}.cls-2{fill:#683c11;}.cls-3{fill:#dadada;}</style></defs><g id="Calque_1-2"><path class="cls-2" d="M175,39.85c0,.18,0,.35-.01,.53-.44,50.69-39.45,91.62-87.49,91.62S.45,91.07,.01,40.38c-.01-.18-.01-.35-.01-.53C.18,17.83,39.29,0,87.5,0s87.32,17.83,87.5,39.85Z"/><path class="cls-1" d="M159.5,40.3v.13c0,.11,0,.21-.01,.31-.05,2.48-.7,4.9-1.88,7.22-7.46,14.68-36.25,25.61-70.61,25.61S25.06,63.1,16.89,48.88c-1.5-2.6-2.32-5.33-2.38-8.14-.01-.1-.01-.2-.01-.31v-.13C14.65,22.06,47.05,7.29,87,7.29s72.35,14.77,72.5,33.01Z"/><path class="cls-3" d="M157.61,47.96c-7.46,14.68-36.25,25.61-70.61,25.61S25.06,63.1,16.89,48.88c7.47-14.66,36.25-25.59,70.61-25.59s61.92,10.47,70.11,24.67Z"/></g></svg>