<?xml version="1.0" encoding="UTF-8"?><svg id="Calque_2" xmlns="http://www.w3.org/2000/svg" viewBox="0 0 160.14 195"><defs><style>.cls-1{fill:#be1622;}.cls-2{fill:#e30613;}.cls-3{fill:#7d4e24;}.cls-4{fill:#b17f4a;}.cls-5{fill:#936037;}</style></defs><g id="Calque_1-2"><path class="cls-3" d="M104,41V183c0,6.63-5.37,12-12,12-2.19,0-4.24-.58-6-1.6-3.58-2.07-6-5.95-6-10.4V41c0-4.45,2.42-8.33,6-10.4,1.76-1.02,3.81-1.6,6-1.6,3.32,0,6.32,1.34,8.49,3.51,2.17,2.17,3.51,5.17,3.51,8.49Z"/><path class="cls-5" d="M92,41V183c0,4.45-2.42,8.33-6,10.4-3.58-2.07-6-5.95-6-10.4V41c0-4.45,2.42-8.33,6-10.4,.91,.53,1.75,1.17,2.49,1.91,2.17,2.17,3.51,5.17,3.51,8.49Z"/><path class="cls-1" d="M160.14,53.09v44.26H0V53.09c0-15.51,12.58-28.09,28.09-28.09h103.96c15.52,0,28.09,12.58,28.09,28.09Z"/><path class="cls-2" d="M60.14,53.09v44.26H0V53.09c0-11.4,6.8-21.22,16.57-25.62,3.51-1.59,7.42-2.47,11.52-2.47h3.96c15.52,0,28.09,12.58,28.09,28.09Z"/><polygon class="cls-5" points="120 0 120 7 111 7 111 31 104 31 104 0 120 0"/><polygon class="cls-4" points="117 0 117 7 108 7 108 31 104 31 104 0 117 0"/></g></svg>